<?xml version="1.0" encoding="utf-8"?>
<!-- Generator: Adobe Illustrator 24.0.0, SVG Export Plug-In . SVG Version: 6.00 Build 0)  -->
<svg version="1.1" id="Layer_1" xmlns="http://www.w3.org/2000/svg" xmlns:xlink="http://www.w3.org/1999/xlink" x="0px" y="0px"
	 viewBox="0 0 60.78 46.94" style="enable-background:new 0 0 60.78 46.94;" xml:space="preserve">
<style type="text/css">
	.st0{fill:none;stroke:#000000;stroke-width:1;stroke-linecap:round;stroke-miterlimit:10;}
	.st1{fill:#FFFFFF;stroke:#000000;stroke-width:0.8689;stroke-miterlimit:10;}
	.st2{fill:none;stroke:#000000;stroke-width:0.8689;stroke-linecap:round;stroke-miterlimit:10;}
	.st3{fill:none;stroke:#000000;stroke-width:0.8689;stroke-miterlimit:10;}
</style>
<g>
	<circle class="st0" cx="16.95" cy="36.62" r="3.65"/>
	<circle class="st0" cx="40.94" cy="36.62" r="3.65"/>
	<polygon class="st1" points="45.37,29.34 12.32,29.34 6.82,11.54 50.87,11.54 	"/>
	<path class="st2" d="M12.47,32.68c0,0,32.19,0,32.74,0s2.79-2.17,0.15-3.34"/>
	<polyline class="st2" points="50.87,11.54 52.79,5.65 55.79,4.72 	"/>
	<line class="st3" x1="14.3" y1="11.54" x2="14.3" y2="29.34"/>
	<line class="st3" x1="20.31" y1="11.54" x2="20.31" y2="29.34"/>
	<line class="st3" x1="26.32" y1="11.54" x2="26.32" y2="29.34"/>
	<line class="st3" x1="32.32" y1="11.54" x2="32.32" y2="29.34"/>
	<line class="st3" x1="38.33" y1="11.54" x2="38.33" y2="29.34"/>
	<line class="st3" x1="44.34" y1="11.54" x2="44.34" y2="29.34"/>
	<line class="st3" x1="8.15" y1="15.84" x2="49.6" y2="15.84"/>
	<line class="st3" x1="9.25" y1="19.41" x2="48.44" y2="19.41"/>
	<line class="st3" x1="10.35" y1="22.98" x2="47.33" y2="22.98"/>
	<line class="st3" x1="11.46" y1="26.55" x2="46.23" y2="26.55"/>
</g>
</svg>
