<?xml version="1.0" encoding="utf-8"?>
<!-- Generator: Adobe Illustrator 24.0.0, SVG Export Plug-In . SVG Version: 6.00 Build 0)  -->
<svg version="1.1" id="Layer_1" xmlns="http://www.w3.org/2000/svg" xmlns:xlink="http://www.w3.org/1999/xlink" x="0px" y="0px"
	 viewBox="0 0 93.61 36.09" style="enable-background:new 0 0 93.61 36.09;" xml:space="preserve">
<style type="text/css">
	.st0{fill:#016D77;}
	.st1{font-family:'AgencyFB-Bold';}
	.st2{font-size:17.2609px;}
	.st3{fill:#004849;}
	.st4{fill:none;stroke:#49B591;stroke-width:0.3105;stroke-miterlimit:10;}
	.st5{fill:#49B591;}
</style>
<g>
	<text transform="matrix(1 0 0 1 32.4739 24.4031)"><tspan x="0" y="0" class="st0 st1 st2">T</tspan><tspan x="6.04" y="0" class="st0 st1 st2">ech PCs</tspan></text>
	<path class="st3" d="M8.17,15.83v4.43c0,2.38,1.27,4.57,3.32,5.76l3.84,2.22c2.06,1.19,4.59,1.19,6.65,0l3.84-2.22
		c2.06-1.19,3.32-3.38,3.32-5.76v-4.43c0-2.38-1.27-4.57-3.32-5.76l-3.84-2.22c-2.06-1.19-4.59-1.19-6.65,0l-3.84,2.22
		C9.44,11.26,8.17,13.45,8.17,15.83z"/>
	<g>
		<path class="st4" d="M18.66,20.52c0,0,4.13,2.59,8.02,0"/>
		<circle class="st5" cx="18.66" cy="20.52" r="0.73"/>
		<g>
			<path class="st5" d="M27.01,19.78c0.23,0,0.42,0.19,0.42,0.42s-0.19,0.42-0.42,0.42s-0.42-0.19-0.42-0.42
				S26.78,19.78,27.01,19.78 M27.01,19.47c-0.4,0-0.73,0.33-0.73,0.73c0,0.4,0.33,0.73,0.73,0.73c0.4,0,0.73-0.33,0.73-0.73
				C27.75,19.79,27.42,19.47,27.01,19.47L27.01,19.47z"/>
		</g>
	</g>
	<g>
		<path class="st4" d="M21.11,19.1c0,0,4.31-2.28,4.01-6.95"/>
		<circle class="st5" cx="21.11" cy="19.1" r="0.73"/>
		<g>
			<path class="st5" d="M25.01,11.28L25.01,11.28c0.07,0,0.15,0.02,0.21,0.06c0.2,0.12,0.27,0.37,0.15,0.58
				c-0.08,0.13-0.22,0.21-0.37,0.21c-0.07,0-0.15-0.02-0.21-0.06c-0.1-0.06-0.17-0.15-0.2-0.26c-0.03-0.11-0.01-0.22,0.04-0.32
				C24.72,11.37,24.86,11.28,25.01,11.28 M25.01,10.97c-0.25,0-0.5,0.13-0.64,0.37c-0.2,0.35-0.08,0.8,0.27,1
				c0.12,0.07,0.24,0.1,0.37,0.1c0.25,0,0.5-0.13,0.64-0.37c0.2-0.35,0.08-0.8-0.27-1C25.26,11.01,25.13,10.97,25.01,10.97
				L25.01,10.97z"/>
		</g>
	</g>
	<g>
		<path class="st4" d="M21.11,16.27c0,0,0.18-4.87-4.01-6.95"/>
		<circle class="st5" cx="21.11" cy="16.27" r="0.73"/>
		<g>
			<path class="st5" d="M16.65,8.78L16.65,8.78c0.15,0,0.29,0.08,0.37,0.21c0.12,0.2,0.05,0.46-0.15,0.58
				c-0.06,0.04-0.14,0.06-0.21,0.06c-0.15,0-0.29-0.08-0.37-0.21c-0.12-0.2-0.05-0.46,0.15-0.58C16.51,8.8,16.58,8.78,16.65,8.78
				 M16.65,8.46c-0.12,0-0.25,0.03-0.37,0.1c-0.35,0.2-0.47,0.65-0.27,1c0.14,0.24,0.38,0.37,0.64,0.37c0.12,0,0.25-0.03,0.37-0.1
				c0.35-0.2,0.47-0.65,0.27-1C17.15,8.6,16.91,8.46,16.65,8.46L16.65,8.46z"/>
		</g>
	</g>
	<g>
		<path class="st4" d="M18.66,14.86c0,0-4.13-2.59-8.02,0"/>
		<circle class="st5" cx="18.66" cy="14.86" r="0.73"/>
		<g>
			<path class="st5" d="M10.3,14.76c0.23,0,0.42,0.19,0.42,0.42s-0.19,0.42-0.42,0.42s-0.42-0.19-0.42-0.42S10.07,14.76,10.3,14.76
				 M10.3,14.45c-0.4,0-0.73,0.33-0.73,0.73s0.33,0.73,0.73,0.73s0.73-0.33,0.73-0.73S10.71,14.45,10.3,14.45L10.3,14.45z"/>
		</g>
	</g>
	<g>
		<path class="st4" d="M16.21,16.27c0,0-4.31,2.28-4.01,6.95"/>
		<circle class="st5" cx="16.21" cy="16.27" r="0.73"/>
		<g>
			<path class="st5" d="M12.31,23.25L12.31,23.25c0.07,0,0.15,0.02,0.21,0.06c0.2,0.12,0.27,0.37,0.15,0.58
				c-0.08,0.13-0.22,0.21-0.37,0.21c-0.07,0-0.15-0.02-0.21-0.06c-0.2-0.12-0.27-0.37-0.15-0.58
				C12.02,23.33,12.16,23.25,12.31,23.25 M12.31,22.94c-0.25,0-0.5,0.13-0.64,0.37c-0.2,0.35-0.08,0.8,0.27,1
				c0.12,0.07,0.24,0.1,0.37,0.1c0.25,0,0.5-0.13,0.64-0.37c0.2-0.35,0.08-0.8-0.27-1C12.56,22.97,12.43,22.94,12.31,22.94
				L12.31,22.94z"/>
		</g>
	</g>
	<g>
		<path class="st4" d="M16.21,19.1c0,0-0.18,4.87,4.01,6.95"/>
		<circle class="st5" cx="16.21" cy="19.1" r="0.73"/>
		<g>
			<path class="st5" d="M20.66,25.76L20.66,25.76c0.15,0,0.29,0.08,0.37,0.21c0.06,0.1,0.07,0.21,0.04,0.32
				c-0.03,0.11-0.1,0.2-0.2,0.26c-0.06,0.04-0.14,0.06-0.21,0.06c-0.15,0-0.29-0.08-0.37-0.21c-0.12-0.2-0.05-0.46,0.15-0.58
				C20.52,25.78,20.59,25.76,20.66,25.76 M20.66,25.45c-0.12,0-0.25,0.03-0.37,0.1c-0.35,0.2-0.47,0.65-0.27,1
				c0.14,0.24,0.38,0.37,0.64,0.37c0.12,0,0.25-0.03,0.37-0.1c0.35-0.2,0.47-0.65,0.27-1C21.16,25.58,20.92,25.45,20.66,25.45
				L20.66,25.45z"/>
		</g>
	</g>
	<path class="st5" d="M18.66,19.26L18.66,19.26c-0.87,0-1.57-0.7-1.57-1.57v0c0-0.87,0.7-1.57,1.57-1.57h0
		c0.87,0,1.57,0.7,1.57,1.57v0C20.23,18.56,19.53,19.26,18.66,19.26z"/>
</g>
</svg>
