<?xml version="1.0" encoding="utf-8"?>
<!-- Generator: Adobe Illustrator 24.0.0, SVG Export Plug-In . SVG Version: 6.00 Build 0)  -->
<svg version="1.1" id="Layer_1" xmlns="http://www.w3.org/2000/svg" xmlns:xlink="http://www.w3.org/1999/xlink" x="0px" y="0px"
	 viewBox="0 0 48 48" style="enable-background:new 0 0 48 48;" xml:space="preserve">
<style type="text/css">
	.st0{fill:#039BE5;}
	.st1{fill:#FFFFFF;}
</style>
<path class="st0" d="M24,0C10.7,0,0,10.7,0,24s10.7,24,24,24s24-10.7,24-24S37.3,0,24,0z"/>
<path class="st1" d="M27.2,30.4h6.2l1-6.3h-7.2v-3.4c0-2.6,0.9-4.9,3.3-4.9h3.9v-5.5c-0.7-0.1-2.2-0.3-4.9-0.3
	c-5.8,0-9.2,3.1-9.2,10v4.2h-5.9v6.3h5.9v18.2c1.2,0.2,2.4-0.5,3.6-0.5c1.1,0,2.2,0.7,3.2,0.6V30.4z"/>
</svg>
