<?xml version="1.0" encoding="utf-8"?>
<!-- Generator: Adobe Illustrator 24.0.0, SVG Export Plug-In . SVG Version: 6.00 Build 0)  -->
<svg version="1.1" id="Layer_1" xmlns="http://www.w3.org/2000/svg" xmlns:xlink="http://www.w3.org/1999/xlink" x="0px" y="0px"
	 viewBox="0 0 48 48" style="enable-background:new 0 0 48 48;" xml:space="preserve">
<style type="text/css">
	.st0{fill:#304FFE;}
	.st1{fill:#4928F4;}
	.st2{fill:#6200EA;}
	.st3{fill:#673AB7;}
	.st4{fill:#8E24AA;}
	.st5{fill:#C2185B;}
	.st6{fill:#D81B60;}
	.st7{fill:#F50057;}
	.st8{fill:#FF1744;}
	.st9{fill:#FF5722;}
	.st10{fill:#FF6F00;}
	.st11{fill:#FF9800;}
	.st12{fill:#FFC107;}
	.st13{fill:#FFD54F;}
	.st14{fill:#FFE082;}
	.st15{fill:#FFECB3;}
	.st16{fill:none;stroke:#FFFFFF;stroke-width:2.6667;stroke-linecap:round;stroke-linejoin:round;stroke-miterlimit:10;}
	.st17{fill:#FFFFFF;}
</style>
<path class="st0" d="M47.6,10c-0.5,0.3-1.3,0.7-1.6,1c-0.1,0.1-0.2,0.3-0.2,0.4v1.4l-0.4,1.3L45,15.4l-0.4,1.5l-0.9,3l-0.9,3
	l-0.7,2.2c0,0.3,0,0.7,0,1c-0.1,1.3-0.4,2.5-0.8,3.7c-0.3,0.7-0.6,1.4-0.9,2c-0.1,0.3-0.3,0.5-0.5,0.7c-0.5,0.8-1.2,1.6-1.9,2.3
	c-0.5,0.5-1.1,1.1-1.8,1.5c0,0,0,0,0,0c-0.1,0.1-0.2,0.2-0.4,0.2c-0.4,0.3-0.9,0.5-1.3,0.7c-0.3,0.2-0.6,0.3-0.9,0.4
	c-0.1,0-0.1,0.1-0.2,0.1c-0.8,0.4-1.6,0.6-2.5,0.7c-0.1,0-0.1,0-0.1,0c-0.5,0.1-1.1,0.2-1.6,0.2c-0.2,0-0.5,0-0.7,0l-0.9-0.1
	l-4.6-0.2c0,0,0,0,0,0l-2.3-0.1c-0.2,0-0.4,0-0.5,0c-0.7,0-1.4-0.1-2.1-0.3c0,0,0,0,0,0c-1.3-0.2-2.5-0.7-3.6-1.2
	c-0.6-0.3-1.2-0.7-1.8-1.1c-0.2-0.2-0.5-0.4-0.7-0.6c-0.6-0.5-1.2-1.1-1.7-1.7c-0.1-0.1-0.1-0.2-0.2-0.2c-0.1-0.1-0.2-0.2-0.2-0.3
	c-0.5-0.6-0.9-1.3-1.3-2c-0.3-0.6-0.6-1.3-0.8-2c-0.1-0.3-0.1-0.5-0.2-0.8c0,0,0,0,0-0.1c-0.1-0.5-0.3-1.1-0.3-1.7
	c-0.1-0.4-0.1-0.9-0.1-1.3c0-0.2,0-0.4,0-0.5l2.5-3.9l2.5-3.8l1.1-1.7l1-1.6l0.3-0.5v-1.4c0-0.3,0-0.6,0-0.9c0-0.9-0.2-1.8-0.5-2.7
	c-0.3-0.9-0.7-1.8-1.1-2.6c-0.5-0.9-1-1.7-1.5-2.5c-0.7-1.1-1.1-2-1-2.6c1-0.2,2-0.3,3-0.3h21.3C40.2,0,45,3.5,47,8.3
	C47.2,8.9,47.4,9.4,47.6,10z"/>
<path class="st1" d="M48,13.3v0.4l-1.8,1.1L45,15.4l-1.3,0.7l-2.6,1.5l-2.5,1.5L36,20.7l-1,0.6c0,0.6-0.2,1.2-0.5,1.8
	c-0.4,0.8-1.1,1.4-2,2c-0.9,0.5-2,1-3.2,1.3c0,0,0,0,0,0c-4.7,1.2-11.2,0.7-14.4-1.7c-0.9-0.7-1.5-1.5-1.8-2.4
	c-0.1-0.3-0.1-0.6-0.1-1v-9.6c0-0.2-0.1-0.4-0.4-0.6c-0.7-0.6-2.4-1.1-4.3-1.7C6.9,9,5.3,8.6,4,8.2C2.9,7.9,2,7.5,1.5,7.2
	C1.7,6.8,2,6.3,2.3,5.9c1.9-2.7,4.7-4.7,8-5.5c1-0.2,2-0.3,3-0.3h14.4C34.9,1.3,41.5,4.2,47,8.3c0.2,0.5,0.4,1.1,0.5,1.6
	c0.2,0.9,0.4,1.8,0.4,2.7C48,12.9,48,13.1,48,13.3z"/>
<path class="st2" d="M48,13.3v5.9l-0.3,0.9l-1,3.1l-1,3.2l-0.5,1.7l-0.5,1.6l-0.5,1.5l-0.5,1.5l-0.3,0.8l-0.3,1c0,1,0,1.9-0.1,2.7
	c0,0.1,0,0.2,0,0.2c-0.1,0.7-0.2,1.3-0.4,1.8c0,0.1,0,0.2-0.1,0.2c-0.3,1-0.9,1.6-1.6,2c-0.2,0.1-0.4,0.2-0.6,0.3
	c-0.7,0.2-1.6,0.4-2.7,0.4c-0.8,0.1-1.7,0.1-2.8,0.1h-0.9l-1.6-0.1l-0.3,0L29.1,42l-2.9-0.1l-9.7-0.4L14,41.4h-0.3
	c-1,0-1.9-0.1-2.7-0.2c-1.1-0.2-2-0.5-2.6-0.9c-0.9-0.6-1.5-1.5-1.8-2.7c-0.1-0.3-0.1-0.6-0.2-0.9C6.2,35.9,6.1,35,6.1,34
	c0-0.2,0-0.4,0-0.6c0,0,0,0,0,0v-0.8c0-0.4,0-0.8,0-1.2l0.1-2.1l0-1.5l0.1-1.8v-0.3l0.1-3.3l0.1-3.3L6.5,16l0.1-3l0-0.8
	c0-0.4-1.4-0.7-3-0.9c-1.2-0.2-2.6-0.3-3.4-0.5c0.1-0.3,0.1-0.6,0.2-0.9C0.7,9,1,8.1,1.5,7.2C1.7,6.8,2,6.3,2.3,5.9
	c2.9-1.3,5.9-2.3,9-2.9c2.7-0.6,5.6-0.9,8.6-0.9c9.8,0,18.9,3.3,26.1,8.9c0.7,0.5,1.4,1.1,2,1.7C48,12.9,48,13.1,48,13.3z"/>
<path class="st3" d="M48,16.5v6.1L47.3,24l-1.4,2.7l-0.7,1.4l-0.7,1.3L44.1,30c0,0.4,0,0.8,0,1.2c0,0.6,0,1.1-0.1,1.6
	c-0.1,0.6-0.1,1.1-0.2,1.7c-0.2,1.1-0.5,2-0.9,2.7c-0.1,0.1-0.1,0.2-0.2,0.3c-0.1,0.2-0.3,0.5-0.5,0.7c-0.2,0.3-0.5,0.5-0.8,0.8
	c-0.5,0.3-1,0.6-1.6,0.8c-0.8,0.3-1.6,0.5-2.7,0.6c-0.7,0.1-1.4,0.1-2.2,0.1l-0.6,0l-2.8,0.2h0l-2.9,0.2l-3,0.2l-4.1,0.2l-5,0.3
	l-0.7,0c-0.7,0-1.3,0-1.9-0.1c-0.1,0-0.1,0-0.2,0c-0.9-0.1-1.7-0.4-2.5-0.7c-0.9-0.4-1.7-0.9-2.4-1.6c-0.6-0.6-1.1-1.2-1.5-2
	C7.2,37,7.1,36.8,7,36.6c-0.4-0.8-0.7-1.7-1-2.6C6,33.8,6,33.7,6,33.5c-0.1-0.3-0.1-0.6-0.2-1c-0.1-0.9-0.2-1.8-0.3-2.7v0
	c0-0.4,0-0.8,0-1.2l-0.7-1.6l-0.1-0.2l-0.1-0.2l-1-2.4l-0.2-0.4l-1-2.3L1.5,19c0,0,0,0,0,0l-1.1-2.6L0,15.5v-2.1
	c0-0.8,0.1-1.7,0.2-2.5c0.1-0.3,0.1-0.6,0.2-0.9C1.6,9.3,2.8,8.7,4,8.2C6.7,6.9,9.7,6,12.8,5.5c2.3-0.4,4.7-0.6,7.1-0.6
	c9.7,0,18.6,3.5,25.5,9.3c0.3,0.2,0.5,0.4,0.8,0.7C46.8,15.3,47.4,15.9,48,16.5z"/>
<path class="st4" d="M48,20.5v6.9l-0.8,1.6l-1.4,3l0,0c0,0.6,0,1.1-0.1,1.6c-0.1,1.5-0.5,2.5-1.1,3.1c-0.4,0.5-1,0.7-1.7,0.8
	c0,0-0.1,0-0.1,0c-0.2,0-0.4,0.1-0.7,0.1c-0.8,0.1-1.8,0-2.9-0.1c-0.1,0-0.3,0-0.4,0c-0.8-0.1-1.7-0.1-2.6-0.1c-0.5,0-1.1,0-1.6,0h0
	l-1.3,0.1h0l-3,0.2l-3.5,0.3l-0.5,0l-4,0.3L20,38.4L18,38.5c-0.4,0-0.7,0-1.1,0c0,0,0,0,0,0c-1.5,0-2.9-0.1-4.1-0.3
	c-1.1-0.2-2.1-0.5-2.9-0.9c-0.9-0.4-1.6-1-2.1-1.7c-0.5-0.7-0.9-1.7-1.2-2.8c0,0,0,0,0,0c-0.2-0.9-0.3-1.9-0.3-3.1l-0.2-0.4
	l-1.2-2.1l-0.2-0.3l-0.1-0.2l-1.2-2.2l-0.6-1.1L2,22l-1.3-2.4L0,18.3v-4.9c1.2-0.8,2.4-1.5,3.6-2.1c1.5-0.8,3.1-1.4,4.7-2
	C10.2,8.8,12,8.3,13.9,8c1.9-0.3,3.9-0.5,6-0.5c9.1,0,17.4,3.2,23.8,8.6c0.3,0.2,0.6,0.5,0.9,0.7c1.1,1,2.2,2.1,3.2,3.2
	C47.8,20.2,47.9,20.3,48,20.5z"/>
<path class="st5" d="M48,24.9v9.6c-0.3-0.2-0.8-0.4-1.3-0.7c-0.3-0.1-0.6-0.3-1-0.4c-0.5-0.2-1.1-0.4-1.7-0.7
	c-0.1-0.1-0.3-0.1-0.4-0.1c-0.2-0.1-0.5-0.2-0.7-0.3c-0.8-0.2-1.7-0.5-2.6-0.7c-0.3-0.1-0.7-0.1-1.1-0.2c-1.2-0.2-2.4-0.3-3.7-0.3
	c-0.1,0-0.2,0-0.3,0l-3.4,0l-4.7,0h0l-10,0.1c-3.2,0-5.1,0.8-6.3,1.1c0,0,0,0,0,0c-1.2,0.3-1.6,0.1-1.7-2.1c0-0.6,0-1.4,0-2.3
	l-0.7-0.6l-1.3-1l-0.8-0.6l-0.2-0.1l-2.2-1.7l-0.3-0.3l-0.7-0.5l-1.3-1L0,21.2v-4.5c0.1-0.1,0.3-0.2,0.4-0.3c1.9-1.3,4-2.5,6.2-3.4
	c1.9-0.8,4-1.5,6.1-1.9c0.6-0.1,1.2-0.2,1.8-0.3c1.8-0.3,3.6-0.5,5.5-0.5c8,0,15.4,2.8,21.2,7.4c0.9,0.7,1.7,1.4,2.5,2.2
	c1.1,1,2.1,2.1,3.1,3.3c0.2,0.2,0.4,0.5,0.6,0.7C47.5,24.3,47.8,24.6,48,24.9z"/>
<path class="st6" d="M48,30.3v4.4c0,0.9-0.1,1.7-0.2,2.5c-0.2,1.2-0.7,2.4-1.2,3.5c-0.3,0.1-0.6,0.1-1,0c-0.8-0.1-1.8-0.6-2.9-1.2
	c-0.1,0-0.1,0-0.1-0.1c-0.3-0.2-0.7-0.4-1-0.6c-0.7-0.4-1.5-0.8-2.2-1.2c-0.2-0.1-0.3-0.2-0.5-0.2c-0.9-0.4-1.7-0.8-2.6-1.1
	c0,0,0,0,0,0c-0.2-0.1-0.4-0.1-0.6-0.2c-0.8-0.2-1.5-0.3-2.3-0.3l-1.5-0.4l-6.5-1.9c0,0,0,0,0,0l-4-1.2h0l-1.7-0.5
	c-5,0-8.1,2.1-9.6,1.3c-0.6-0.3-0.9-1.1-1.1-2.6c0-0.4-0.1-0.9-0.1-1.5l-1.6-0.8l-0.1,0h0l-1.1-0.6l-1.2-0.6l-0.1,0L4.6,27L2,25.7
	l-2-1v-4.6c0.2-0.2,0.5-0.4,0.7-0.6C1,19.4,1.2,19.2,1.5,19c0,0,0,0,0,0c1.6-1.1,3.2-2.1,5-3c2.1-1,4.3-1.7,6.5-2.2
	c0.3-0.1,0.7-0.2,1-0.2c1.9-0.4,3.8-0.5,5.8-0.5c7,0,13.5,2.3,18.7,6.1c1.5,1.1,2.9,2.4,4.2,3.7c1.1,1.1,2,2.3,2.9,3.6
	c0.1,0.1,0.1,0.2,0.2,0.3c0.5,0.7,0.9,1.5,1.4,2.2C47.5,29.4,47.8,29.8,48,30.3z"/>
<path class="st7" d="M47.8,37.2c-0.2,1.2-0.7,2.4-1.2,3.5c-0.3,0.5-0.5,1-0.8,1.4c-0.2,0.3-0.4,0.5-0.6,0.8
	c-0.5-0.2-1.2-0.5-2.1-0.7c0,0,0,0,0,0c-0.7-0.2-1.4-0.5-2.2-0.7c-0.2-0.1-0.5-0.1-0.7-0.2c-0.9-0.3-1.9-0.5-2.9-0.6
	c-0.8-0.1-1.6-0.2-2.3-0.2l-0.6-0.2h0l-3.2-0.9l-2-0.6l-2.2-0.6h0l-0.7-0.2l-8.7-2.5L15,34.7l-1.9-0.4l-3-0.7l-0.4-0.1c0,0,0,0,0,0
	l-3.1-0.7c0,0,0,0,0,0l-0.5-0.1l-0.3-0.1L3.6,32l-0.3-0.1l-1.9-1.6L0,29.2v-5.4c0.5-0.5,1-0.9,1.5-1.4C1.7,22.2,1.9,22.1,2,22
	c0.2-0.1,0.3-0.3,0.5-0.4c1.2-0.9,2.5-1.7,3.9-2.5c1.7-0.9,3.6-1.7,5.5-2.2c0.4-0.1,0.7-0.2,1.1-0.3c2.2-0.5,4.5-0.8,6.9-0.8
	c6,0,11.5,1.8,16.1,4.9c2.3,1.5,4.3,3.4,6.1,5.5c0.9,1.1,1.7,2.2,2.4,3.3c0.1,0.1,0.1,0.2,0.2,0.3c0.4,0.7,0.8,1.4,1.2,2.2
	c0.3,0.7,0.6,1.3,0.9,2C47.1,35,47.5,36.1,47.8,37.2z"/>
<path class="st8" d="M45.7,42.1c-0.2,0.3-0.4,0.5-0.6,0.8c-0.6,0.7-1.2,1.4-1.9,2c-0.6,0.5-1.3,1-2,1.4c-0.3-0.1-0.5-0.1-0.8-0.3
	c-0.9-0.3-1.8-0.8-2.7-1.3c-1.3-0.8-2.4-1.7-2.9-2.1c-0.2-0.2-0.3-0.2-0.3-0.2l-2.3-0.2l-0.3,0l-2.9-0.3l-3-0.3l-4.5-0.4l-7.1-0.6
	l0,0l-2.5-1.2l-2.5-1.2l-2-1l-0.4-0.2l-0.5-0.3l-1.9-0.9l-2.5-1.2l-0.8-0.4L0,33.8v-6c0.6-0.7,1.3-1.5,2-2.1
	c0.5-0.4,0.9-0.9,1.4-1.3c0.1-0.1,0.2-0.1,0.2-0.2c0.1-0.1,0.1-0.1,0.2-0.1c0.8-0.6,1.6-1.2,2.5-1.7c1-0.6,2-1.2,3.1-1.7
	c1.2-0.5,2.4-1,3.6-1.3c2.2-0.6,4.5-0.9,6.9-0.9c5.4,0,10.5,1.7,14.6,4.5c2.7,1.8,4.9,4.1,6.8,6.8c0.6,0.9,1.1,1.8,1.6,2.7
	c0.2,0.3,0.3,0.7,0.5,1c0.2,0.3,0.3,0.7,0.5,1c0.3,0.7,0.5,1.4,0.8,2.1c0.4,1.3,0.7,2.7,0.9,4.1C45.6,41.2,45.7,41.7,45.7,42.1z"/>
<path class="st9" d="M43.2,44.6c0,0.1,0,0.2,0,0.3c-0.6,0.5-1.3,1-2,1.4c-0.3,0.2-0.6,0.3-0.9,0.5c-0.3,0.1-0.6,0.3-0.9,0.4
	c-0.5-0.2-1.1-0.5-1.7-0.8c-0.9-0.4-1.9-0.8-2.7-0.9c-0.2,0-0.4-0.1-0.5-0.1l-2.2-0.3h0l-2.7-0.4l-2.7-0.4l-1.3-0.2l-10.1-1.3
	c-0.7,0-1.3,0-2.1-0.1c-0.9-0.1-1.8-0.2-2.7-0.4c-0.9-0.2-1.8-0.4-2.7-0.6c-0.9-0.2-1.8-0.5-2.7-0.7c-1-0.3-1.9-0.6-2.6-0.8
	C1.9,40,1.4,39.9,1,39.7c-0.2-0.6-0.4-1.2-0.6-1.8c-0.3-1-0.4-2.1-0.4-3.3v-2.2c0.4-0.7,0.9-1.4,1.4-2.1c0.9-1.3,2-2.4,3.2-3.4
	c0-0.1,0.1-0.1,0.1-0.1l0,0c0.4-0.4,0.8-0.7,1.3-1c0.1-0.1,0.1-0.1,0.2-0.1c0.2-0.2,0.4-0.3,0.7-0.5c1.9-1.3,4-2.3,6.3-3
	c2.1-0.6,4.4-1,6.7-1c4.7,0,9,1.4,12.6,3.7c2.7,1.7,5,4,6.7,6.6c0.2,0.3,0.4,0.6,0.6,0.9c0.9,1.6,1.7,3.2,2.2,5
	c0.1,0.2,0.1,0.4,0.2,0.6c0.1,0.4,0.2,0.7,0.3,1.1c0,0.1,0.1,0.2,0.1,0.3c0.2,0.8,0.3,1.7,0.4,2.6c0,0,0,0,0,0
	C43.1,43,43.2,43.8,43.2,44.6z"/>
<path class="st10" d="M40.4,44.6c0,0.5,0,1-0.1,1.5c0,0.2-0.1,0.5-0.1,0.7c-0.3,0.1-0.6,0.3-0.9,0.4c-0.6,0.2-1.2,0.4-1.8,0.5
	c-0.4,0.1-0.9,0.2-1.3,0.2h0c-0.4-0.3-0.9-0.6-1.4-0.9c-0.9-0.6-1.8-1.3-2.6-1.9c0,0,0,0,0,0c-0.8-0.6-1.3-1.1-1.3-1.1l-1.4,0.1
	l-2.7,0.1l-1.3,0.1l-5.1,0.2l-4.3,0.2c-0.3,0-0.6,0-1,0h0c-0.6,0-1.2-0.1-2-0.1c-0.9-0.1-1.8-0.1-2.7-0.2c-0.9-0.1-1.9-0.2-2.7-0.3
	c-1-0.1-1.9-0.2-2.7-0.3c-0.6-0.1-1.2-0.1-1.6-0.2c-0.4-0.4-0.7-0.9-1-1.3c-0.5-0.7-0.9-1.5-1.2-2.3c-0.2-0.6-0.4-1.2-0.6-1.8
	c0.4-1.2,0.9-2.3,1.5-3.4c0.5-0.9,1-1.7,1.7-2.5c0.6-0.8,1.3-1.5,2-2.2v0c0.2-0.2,0.4-0.4,0.6-0.6c0.4-0.3,0.8-0.7,1.2-1h0
	c0,0,0,0,0,0c0.3-0.3,0.7-0.5,1-0.7c2-1.3,4.2-2.3,6.6-2.9c1.6-0.4,3.3-0.6,5-0.6c3.4,0,6.6,0.8,9.4,2.3h0c2.4,1.2,4.5,2.9,6.3,5
	c0.9,1.1,1.8,2.3,2.4,3.6c0.5,0.9,0.9,1.7,1.2,2.7c0,0.1,0.1,0.1,0.1,0.2c0.2,0.7,0.4,1.4,0.6,2.1c0.1,0.5,0.2,1,0.3,1.5
	c0,0.2,0.1,0.3,0.1,0.5C40.4,42.7,40.4,43.6,40.4,44.6z"/>
<path class="st11" d="M37.7,44.6v0.1c0,0.5,0,1-0.1,1.6c0,0.5-0.1,0.9-0.1,1.4c-0.4,0.1-0.9,0.2-1.3,0.2h0c-0.5,0.1-1,0.1-1.5,0.1
	h-2.3l-0.5-0.1l-2.6-0.8l-2.7-0.8l-6.2-1.9l-2.7-0.8c0,0-1.1,0.4-2.7,1h0c-0.6,0.2-1.3,0.4-1.9,0.6c-0.9,0.3-1.8,0.5-2.7,0.7
	c-0.9,0.2-1.9,0.4-2.7,0.4c-0.3,0-0.5,0-0.7,0c-0.7-0.4-1.5-0.9-2.1-1.5c-0.6-0.5-1.1-1-1.6-1.6c-0.4-0.4-0.7-0.9-1-1.3
	c0.1-0.6,0.2-1.2,0.4-1.8c0.4-1.6,1-3.1,1.9-4.5c0.5-0.8,1-1.5,1.5-2.3c0,0,0.1-0.1,0.1-0.1c0,0,0,0,0,0c0.2-0.2,0.4-0.4,0.5-0.6
	c0,0,0,0,0,0c0.5-0.6,1.1-1.1,1.7-1.7c0.2-0.2,0.4-0.3,0.6-0.5c0,0,0.1-0.1,0.1-0.1c3-2.3,6.7-3.7,10.8-3.7c4.6,0,8.8,1.7,11.9,4.5
	c1.5,1.4,2.8,3,3.8,4.8c0.1,0.1,0.2,0.3,0.2,0.4c0.1,0.2,0.2,0.5,0.3,0.8c0.4,1,0.8,2,1,3c0,0.1,0.1,0.2,0.1,0.3
	c0.1,0.5,0.2,1,0.3,1.5C37.7,42.9,37.7,43.7,37.7,44.6z"/>
<path class="st12" d="M35,44.6c0,0.3,0,0.6,0,0.9c0,0.5-0.1,1-0.1,1.6c0,0.3-0.1,0.7-0.1,1h-7.3l-1.4-0.2l-5.5-0.9l-0.8-0.1
	l-1.8-0.3c-0.8,0-2.5,0.3-4.3,0.7c-0.9,0.2-1.9,0.4-2.8,0.5c-0.1,0-0.2,0-0.3,0h0c-0.9-0.2-1.8-0.5-2.7-0.9
	c-0.3-0.1-0.5-0.3-0.8-0.4c-0.7-0.4-1.5-0.9-2.1-1.5c0-0.2,0-0.3,0-0.4c0-0.3,0-0.7,0-1c0.1-0.9,0.2-1.7,0.4-2.5
	c0.3-1.2,0.7-2.4,1.3-3.5c0.1-0.2,0.2-0.5,0.4-0.7C6.9,36.8,7,36.7,7,36.6c0.2-0.4,0.5-0.8,0.8-1.1c0.6-0.7,1.2-1.4,1.9-2.1
	c0,0,0,0,0,0c0.1-0.1,0.1-0.1,0.2-0.1c0.1-0.1,0.1-0.1,0.2-0.2c0.3-0.2,0.5-0.5,0.8-0.7c0,0,0,0,0,0c2.5-1.9,5.6-3,9-3
	c2.6,0,5.1,0.7,7.2,1.8h0c1.8,1,3.4,2.4,4.7,4c0.5,0.6,0.9,1.3,1.3,2h0c0.1,0.1,0.1,0.3,0.2,0.4c0.4,0.8,0.7,1.6,1,2.5h0
	c0,0.1,0,0.1,0.1,0.2c0.2,0.6,0.3,1.2,0.4,1.8c0,0.1,0,0.3,0,0.4C34.9,43.2,35,43.9,35,44.6z"/>
<path class="st13" d="M32.2,44.4c0,0.2,0,0.4,0,0.7v0c0,0,0,0,0,0c0,1-0.2,1.9-0.4,2.8c0,0.1,0,0.1,0,0.1h-6.2l-5.1-1.1l-0.7-0.1
	l-0.1,0l-5.7,1.2L13.7,48h-0.4c-0.9,0-1.7-0.1-2.5-0.2c-0.1,0-0.2-0.1-0.4-0.1h0c-0.9-0.2-1.8-0.5-2.7-0.9c0-0.1-0.1-0.3-0.1-0.4
	c-0.1-0.6-0.1-1.2-0.1-1.8c0-0.2,0-0.5,0-0.7c0-0.7,0.1-1.4,0.3-2.1c0.1-0.5,0.3-1,0.4-1.5c0.1-0.4,0.3-0.8,0.5-1.2
	c0.2-0.3,0.3-0.7,0.5-1c0.2-0.3,0.4-0.6,0.6-0.9c0.5-0.7,1.2-1.4,1.9-2c0.4-0.3,0.8-0.7,1.3-1c1.9-1.3,4.3-2,6.8-2
	c0.5,0,1,0,1.4,0.1h0c1.4,0.2,2.8,0.6,4,1.2c0,0,0,0,0,0c1.9,0.9,3.6,2.4,4.8,4.1c0.2,0.3,0.4,0.6,0.6,0.9c0.1,0.3,0.3,0.5,0.4,0.8
	c0.2,0.4,0.4,0.9,0.5,1.3h0c0.1,0.5,0.3,1,0.4,1.5v0C32.1,42.9,32.2,43.6,32.2,44.4z"/>
<path class="st14" d="M29.5,44.7L29.5,44.7c0,0.8-0.1,1.6-0.3,2.4c-0.1,0.3-0.2,0.6-0.3,0.9h-6l-3.1-0.8L16.8,48h-3.5
	c-0.9,0-1.7-0.1-2.5-0.2c0,0,0-0.1-0.1-0.1c-0.2-0.6-0.3-1.1-0.4-1.7c-0.1-0.4-0.1-0.8-0.1-1.2c0-0.2,0-0.3,0-0.5
	c0-0.6,0.1-1.2,0.3-1.8c0.1-0.4,0.2-0.8,0.4-1.2c0.1-0.2,0.1-0.4,0.2-0.5c0.2-0.5,0.4-0.9,0.7-1.3c0.3-0.4,0.6-0.8,1-1.2
	c0.4-0.5,0.9-0.9,1.5-1.3c0.9-0.7,2-1.2,3.2-1.5c0.8-0.2,1.6-0.3,2.4-0.3c2.7,0,5.1,1.1,6.8,2.8c0.1,0.1,0.1,0.1,0.2,0.2h0
	c0.2,0.2,0.4,0.4,0.5,0.6c0.5,0.6,0.9,1.3,1.2,2.1c0.2,0.3,0.3,0.7,0.4,1.1c0,0.1,0,0.1,0,0.1c0.2,0.7,0.3,1.3,0.3,2
	C29.5,44.3,29.5,44.5,29.5,44.7z"/>
<path class="st15" d="M26.7,44.7c0,0.5-0.1,1.1-0.2,1.6c-0.1,0.5-0.3,1-0.6,1.5c0,0.1-0.1,0.2-0.1,0.2H14c0,0,0,0,0-0.1
	c-0.2-0.3-0.3-0.5-0.4-0.8c-0.3-0.6-0.4-1.3-0.5-2c0-0.2,0-0.3,0-0.5c0-0.1,0-0.2,0-0.3c0-0.6,0.1-1.1,0.3-1.7
	c0.1-0.5,0.3-0.9,0.5-1.3c0,0,0,0,0,0c0.2-0.3,0.3-0.6,0.5-0.8c0.7-0.9,1.5-1.6,2.5-2.1c0,0,0,0,0,0c0.3-0.2,0.7-0.3,1-0.4
	c0,0,0,0,0,0c0.6-0.2,1.3-0.3,2-0.3c0.8,0,1.5,0.1,2.2,0.4c0.3,0.1,0.5,0.2,0.7,0.3c0,0,0,0,0,0c1.1,0.5,2.1,1.4,2.8,2.5
	c0.1,0.2,0.3,0.4,0.4,0.6c0.1,0.1,0.1,0.2,0.1,0.3c0.3,0.7,0.5,1.5,0.5,2.3c0,0.1,0,0.1,0,0.2C26.7,44.5,26.7,44.6,26.7,44.7z"/>
<g>
	<path class="st16" d="M32,6.7H16c-5.2,0-9.3,4.1-9.3,9.3v16c0,5.2,4.1,9.3,9.3,9.3h16c5.2,0,9.3-4.1,9.3-9.3V16
		C41.3,10.8,37.2,6.7,32,6.7z"/>
	<circle class="st17" cx="33.3" cy="13.3" r="1.3"/>
</g>
<g>
	<circle class="st16" cx="24" cy="24" r="8"/>
</g>
</svg>
