<?xml version="1.0" encoding="utf-8"?>
<!-- Generator: Adobe Illustrator 24.0.0, SVG Export Plug-In . SVG Version: 6.00 Build 0)  -->
<svg version="1.1" id="Layer_1" xmlns="http://www.w3.org/2000/svg" xmlns:xlink="http://www.w3.org/1999/xlink" x="0px" y="0px"
	 viewBox="0 0 48 48" style="enable-background:new 0 0 48 48;" xml:space="preserve">
<style type="text/css">
	.st0{fill:#FF3D00;}
	.st1{fill:#FFFFFF;}
</style>
<path class="st0" d="M46.9,35.8c-0.5,2.5-2.5,4.4-5,4.8C38,41.2,31.4,41.9,24,41.9c-7.3,0-13.9-0.7-17.9-1.3c-2.5-0.4-4.5-2.3-5-4.8
	c-0.5-2.7-1-6.8-1-11.8s0.5-9.1,1-11.8c0.5-2.5,2.5-4.4,5-4.8C10,6.8,16.6,6.1,24,6.1s13.9,0.7,17.9,1.3c2.5,0.4,4.5,2.3,5,4.8
	C47.4,14.9,48,19,48,24C47.9,29,47.4,33.1,46.9,35.8z"/>
<path class="st1" d="M19.2,32.4V15.6L33.5,24L19.2,32.4z"/>
</svg>
