<?xml version="1.0" encoding="utf-8"?>
<!-- Generator: Adobe Illustrator 24.0.0, SVG Export Plug-In . SVG Version: 6.00 Build 0)  -->
<svg version="1.1" id="Layer_1" xmlns="http://www.w3.org/2000/svg" xmlns:xlink="http://www.w3.org/1999/xlink" x="0px" y="0px"
	 viewBox="0 0 24 24" style="enable-background:new 0 0 24 24;" xml:space="preserve">
<style type="text/css">
	.st0{fill:#4285F4;}
	.st1{fill:#34A853;}
	.st2{fill:#FBBC05;}
	.st3{fill:#EA4335;}
	.st4{fill:none;}
</style>
<path class="st0" d="M23.3,12.3c0-0.8-0.1-1.6-0.2-2.4H12v4.6h6.4c-0.3,1.5-1.1,2.7-2.4,3.6v3h3.8C22,18.9,23.3,15.9,23.3,12.3z"/>
<path class="st1" d="M12,23.8c3.2,0,5.9-1.1,7.8-2.9L16,18c-1.1,0.7-2.4,1.1-4,1.1c-3.1,0-5.7-2.1-6.6-4.9H1.5v3
	C3.4,21.2,7.4,23.8,12,23.8z"/>
<path class="st2" d="M5.4,14.2C5.2,13.5,5,12.8,5,12s0.1-1.5,0.4-2.2v-3H1.5C0.7,8.3,0.2,10.1,0.2,12s0.5,3.7,1.3,5.3l3.1-2.4
	C4.5,14.9,5.4,14.2,5.4,14.2z"/>
<path class="st3" d="M12,4.9c1.7,0,3.3,0.6,4.5,1.8l3.4-3.4c-2.1-1.9-4.7-3.1-7.9-3.1c-4.6,0-8.6,2.7-10.5,6.5l3.9,3
	C6.3,7,8.9,4.9,12,4.9z"/>
<path class="st4" d="M0.2,0.2h23.6v23.6H0.2V0.2z"/>
</svg>
